{"title":"The Book Of Henry 2017 Movies HD TS XviD Clean Audio New +Sample","magnet":"magnet:?xt=urn:btih:0fd2ba87d0f2173f004129458e2bdf8650bbea6b&dn=The+Book+Of+Henry+2017+Movies+HD+TS+XviD+Clean+Audio+New+%2BSample&tr=udp%3A%2F%2Ftracker.leechers-paradise.org%3A6969&tr=udp%3A%2F%2Fzer0day.ch%3A1337&tr=udp%3A%2F%2Fopen.demonii.com%3A1337&tr=udp%3A%2F%2Ftracker.coppersurfer.tk%3A6969&tr=udp%3A%2F%2Fexodus.desync.com%3A6969","uploader":"basicssom","categoryP":"video","categoryS":"movies","size":"799124451","seeders":"0","leechers":"0","description":"----------------------------------------------------------------\r\nThe Book Of Henry 2017 Movies HD TS XviD Clean Audio AAC New Source with Sample &#x263B;rDX&#x263B;\r\n\r\nSCREEN SHOTS &amp; POSTER:\r\n   <a href=\"\nhttp://postimage.co.nr/2017/8/tv/index.html\" rel=\"nofollow\" target=\"_NEW\">\nhttp://postimage.co.nr/2017/8/tv/index.html</a>  <a href=\"\nhttp://postimage.co.nr/2017/8/tv/1.html\" rel=\"nofollow\" target=\"_NEW\">\nhttp://postimage.co.nr/2017/8/tv/1.html</a>   <a href=\"\nhttp://postimage.co.nr/2017/8/tv/2.html\" rel=\"nofollow\" target=\"_NEW\">\nhttp://postimage.co.nr/2017/8/tv/2.html</a>   <a href=\"\nhttp://postimage.co.nr/2017/8/tv/3.html\" rel=\"nofollow\" target=\"_NEW\">\nhttp://postimage.co.nr/2017/8/tv/3.html</a>   <a href=\"\nhttp://postimage.co.nr/2017/8/tv/4.html\" rel=\"nofollow\" target=\"_NEW\">\nhttp://postimage.co.nr/2017/8/tv/4.html</a>   <a href=\"\nhttp://postimage.co.nr/2017/8/tv/5.html\" rel=\"nofollow\" target=\"_NEW\">\nhttp://postimage.co.nr/2017/8/tv/5.html</a>   <a href=\"\nhttp://postimage.co.nr/2017/8/tv/6.html\" rel=\"nofollow\" target=\"_NEW\">\nhttp://postimage.co.nr/2017/8/tv/6.html</a>   <a href=\"\nhttp://postimage.co.nr/2017/8/tv/7.html\" rel=\"nofollow\" target=\"_NEW\">\nhttp://postimage.co.nr/2017/8/tv/7.html</a>   <a href=\"\nhttp://postimage.co.nr/2017/8/tv/8.html\" rel=\"nofollow\" target=\"_NEW\">\nhttp://postimage.co.nr/2017/8/tv/8.html</a>   <a href=\"\nhttp://postimage.co.nr/2017/8/tv/9.html\" rel=\"nofollow\" target=\"_NEW\">\nhttp://postimage.co.nr/2017/8/tv/9.html</a>   <a href=\"\nhttp://postimage.co.nr/2017/8/tv/10.html\" rel=\"nofollow\" target=\"_NEW\">\nhttp://postimage.co.nr/2017/8/tv/10.html</a>\r\n\r\nFile size                                : 755 MiB\r\nDuration                                 : 1 h 42 min\r\nOverall bit rate                         : 1 034 kb/s\r\nMovie name                               : The Book Of Henry 2017 Movies HD TS XviD Clean Audio AAC New Source &#x263B;rDX&#x263B;\r\n\r\nVideo\r\nID                                       : 1\r\nFormat                                   : AVC\r\nFormat/Info                              : Advanced Video Codec\r\nFormat profile                           : <a class=\"__cf_email__\" href=\"/cdn-cgi/l/email-protection\" data-cfemail=\"e7af8e808fa7abd4\">[email&#xA0;protected]</a><script data-cfhash=\"f9e31\" type=\"text/javascript\">/* <![CDATA[ */!function(t,e,r,n,c,a,p){try{t=document.currentScript||function(){for(t=document.getElementsByTagName('script'),e=t.length;e--;)if(t[e].getAttribute('data-cfhash'))return t[e]}();if(t&&(c=t.previousSibling)){p=t.parentNode;if(a=c.getAttribute('data-cfemail')){for(e='',r='0x'+a.substr(0,2)|0,n=2;a.length-n;n+=2)e+='%'+('0'+('0x'+a.substr(n,2)^r).toString(16)).slice(-2);p.replaceChild(document.createTextNode(decodeURIComponent(e)),c)}p.removeChild(t)}}catch(u){}}()/* ]]> */</script>\r\nFormat settings, CABAC                   : Yes\r\nFormat settings, ReFrames                : 4 frames\r\nCodec ID                                 : V_MPEG4/ISO/AVC\r\nDuration                                 : 1 h 42 min\r\nBit rate                                 : 821 kb/s\r\nWidth                                    : 720 pixels\r\nHeight                                   : 368 pixels\r\nDisplay aspect ratio                     : 1.957\r\nFrame rate mode                          : Constant\r\nFrame rate                               : 29.970 (30000/1001) FPS\r\nColor space                              : YUV\r\nChroma subsampling                       : 4:2:0\r\nBit depth                                : 8 bits\r\nScan type                                : Progressive\r\nBits/(Pixel*Frame)                       : 0.103\r\nStream size                              : 600 MiB (79%)\r\nTitle                                    : &#x263B;rDX&#x263B;\r\nWriting library                          : XviD\r\n\r\nAudio\r\nID                                       : 2\r\nFormat                                   : E-AC-3\r\nFormat/Info                              : Enhanced Audio Coding 3\r\nFormat settings, Endianness              : Big\r\nCodec ID                                 : A_EAC3\r\nDuration                                 : 1 h 42 min\r\nBit rate mode                            : Constant\r\nBit rate                                 : 192 kb/s\r\nChannel(s)                               : 6 channels\r\nChannel positions                        : Front: L C R, Side: L R, LFE\r\nSampling rate                            : 48.0 kHz\r\nFrame rate                               : 187.500 FPS (256 spf)\r\nCompression mode                         : Lossy\r\nStream size                              : 140 MiB (19%)\r\nTitle                                    : &#x263B;rDX&#x263B;\r\nLanguage                                 : English\r\nDefault                                  : Yes\r\nForced                                   : No","last_updated":"2017-08-14T12:03:04.330Z","parsed":{"xt":"urn:btih:0fd2ba87d0f2173f004129458e2bdf8650bbea6b","dn":"The Book Of Henry 2017 Movies HD TS XviD Clean Audio New  Sample","tr":["udp://exodus.desync.com:6969","udp://open.demonii.com:1337","udp://tracker.coppersurfer.tk:6969","udp://tracker.leechers-paradise.org:6969","udp://zer0day.ch:1337"],"infoHash":"0fd2ba87d0f2173f004129458e2bdf8650bbea6b","infoHashBuffer":{"type":"Buffer","data":[15,210,186,135,208,242,23,63,0,65,41,69,142,43,223,134,80,187,234,107]},"name":"The Book Of Henry 2017 Movies HD TS XviD Clean Audio New  Sample","announce":["udp://exodus.desync.com:6969","udp://open.demonii.com:1337","udp://tracker.coppersurfer.tk:6969","udp://tracker.leechers-paradise.org:6969","udp://zer0day.ch:1337"],"urlList":[]}}